<?xml version="1.0" standalone="no"?>
<!DOCTYPE svg PUBLIC "-//W3C//DTD SVG 1.1//EN" "http://www.w3.org/Graphics/SVG/1.1/DTD/svg11.dtd" >
<svg xmlns="http://www.w3.org/2000/svg">
<metadata>
Created by FontForge 20120731 at Mon Jun 12 21:06:31 2017
 By admin
</metadata>
<defs>
<font id="iconfont" horiz-adv-x="1024" >
  <font-face 
    font-family="iconfont"
    font-weight="500"
    font-stretch="normal"
    units-per-em="1024"
    panose-1="2 0 6 3 0 0 0 0 0 0"
    ascent="896"
    descent="-128"
    x-height="792"
    bbox="0 -128 1144 896.012"
    underline-thickness="0"
    underline-position="0"
    unicode-range="U+0078-E862"
  />
<missing-glyph 
 />
    <glyph glyph-name=".notdef" 
 />
    <glyph glyph-name=".notdef" 
 />
    <glyph glyph-name=".null" horiz-adv-x="0" 
 />
    <glyph glyph-name="nonmarkingreturn" horiz-adv-x="341" 
 />
    <glyph glyph-name="x" unicode="x" horiz-adv-x="1001" 
d="M281 543q-27 -1 -53 -1h-83q-18 0 -36.5 -6t-32.5 -18.5t-23 -32t-9 -45.5v-76h912v41q0 16 -0.5 30t-0.5 18q0 13 -5 29t-17 29.5t-31.5 22.5t-49.5 9h-133v-97h-438v97zM955 310v-52q0 -23 0.5 -52t0.5 -58t-10.5 -47.5t-26 -30t-33 -16t-31.5 -4.5q-14 -1 -29.5 -0.5
t-29.5 0.5h-32l-45 128h-439l-44 -128h-29h-34q-20 0 -45 1q-25 0 -41 9.5t-25.5 23t-13.5 29.5t-4 30v167h911zM163 247q-12 0 -21 -8.5t-9 -21.5t9 -21.5t21 -8.5q13 0 22 8.5t9 21.5t-9 21.5t-22 8.5zM316 123q-8 -26 -14 -48q-5 -19 -10.5 -37t-7.5 -25t-3 -15t1 -14.5
t9.5 -10.5t21.5 -4h37h67h81h80h64h36q23 0 34 12t2 38q-5 13 -9.5 30.5t-9.5 34.5q-5 19 -11 39h-368zM336 498v228q0 11 2.5 23t10 21.5t20.5 15.5t34 6h188q31 0 51.5 -14.5t20.5 -52.5v-227h-327z" />
    <glyph glyph-name="crown" unicode="&#xe600;" horiz-adv-x="1032" 
d="M1019 523q10 -30 11.5 -63.5t-3.5 -64t-16.5 -57.5t-26.5 -45q-16 -20 -31.5 -37t-27.5 -32q-15 -16 -27 -30q5 -15 7 -29q2 -12 0.5 -26.5t-10.5 -26.5q-11 -16 -39.5 -34.5t-72 -34t-101 -26t-128.5 -10.5q-67 0 -122.5 11.5t-98 29t-71.5 37.5t-39 39q-10 16 -12 29.5
t0 22.5q2 11 7 20q-16 15 -33 33q-14 16 -30 36t-30 42q-13 23 -23.5 48t-15 52.5t-2.5 57.5t14 59q8 21 18.5 35.5t22.5 26.5q1 8 3 20t6 25t9.5 26.5t13.5 22.5q31 35 77.5 42t98.5 -10q34 -12 75.5 -21t70.5 -14q0 5 0.5 11t1.5 11q3 18 15 25.5t40 7.5q30 0 40 -7
t12 -18q2 -9 3.5 -17t2.5 -14q27 7 67 18.5t76 24.5q51 18 98 7.5t77 -45.5q14 -16 20.5 -40t9.5 -41q22 -13 38 -31.5t25 -45.5zM838 680q-22 5 -45.5 2.5t-45 -7.5t-39 -11t-25.5 -8q-6 -2 -16.5 -4.5t-21.5 -4.5q26 -4 57.5 -7.5t58.5 -3.5q33 0 68 -2t68 -10
q-4 12 -17 30.5t-42 25.5zM253 679q-31 -8 -42.5 -27.5t-14.5 -33.5q28 11 59.5 13.5t61.5 3.5q33 1 69.5 4.5t65.5 7.5q-12 3 -21.5 5t-15.5 4q-8 2 -26 8t-40.5 11t-48 7t-47.5 -3zM937 311q14 22 23.5 49.5t13 55t0 54.5t-14.5 47q-15 29 -37 45t-48 24t-56 10t-60 3
q-29 1 -56.5 4t-50.5 6.5t-39.5 7t-21.5 4.5h-10q-16 2 -32 1t-30 -1q-37 -7 -72 -12q-29 -5 -61.5 -8.5t-55 -4.5t-45.5 -3.5t-46 -10.5t-44.5 -23t-39.5 -41q-16 -22 -19 -50t2.5 -56t18 -54.5t26.5 -46.5q29 -39 58 -68t48 -39q21 -11 58 -21t77.5 -17t78.5 -10.5
t62 -2.5q16 0 46 2.5t68 8t79.5 15t77.5 25.5q10 4 23 15.5t27 26.5t27.5 32t24.5 33zM338 549q16 1 29.5 2.5t23.5 3.5l22 4q-7 -8 -15 -18q-6 -9 -12.5 -19t-10.5 -20q-13 -33 -15.5 -50t-9.5 -25q-3 -4 -9.5 -9.5t-12.5 -13.5t-11.5 -18.5t-5.5 -26.5t6.5 -25t13.5 -17
t12.5 -17t4.5 -25q-2 -13 -9.5 -19t-28.5 5q-18 10 -31.5 23t-22.5 24q-11 13 -17 26q-18 30 -27 59q-8 26 -9 54t15 52q14 20 34 31t40 15q22 4 46 4zM759 555q23 -1 47 -7q19 -5 40.5 -16t37.5 -31q20 -26 21 -55t-4 -55q-7 -30 -21 -59q-8 -16 -19 -31q-9 -13 -23.5 -27
t-33.5 -23q-33 -15 -48.5 -6.5t-6.5 30.5q4 11 11 18t13.5 14t12 17.5t5.5 27t-5.5 28.5t-12.5 21.5t-13.5 15.5t-9.5 10q-7 8 -9.5 29.5t-19.5 51.5q-18 28 -27 40q-5 7 -8 11q8 0 20 -1q17 -1 53 -3zM688 449q4 -19 -0.5 -30.5t-12 -22t-15 -21.5t-7.5 -30q0 -16 5.5 -26
t11.5 -17.5t11.5 -14.5t5.5 -20q1 -22 -16.5 -34.5t-53.5 -21.5q-20 -6 -55.5 -7t-71.5 4q-33 5 -56 20t-24 38q0 16 5.5 25t12.5 16.5t13 16.5t6 24.5t-7 26.5t-14.5 22t-13 22t-2.5 28q2 14 8 30.5t15.5 33.5t23 33.5t28.5 28.5l115 1q21 -16 38 -35q14 -18 28.5 -41
t21.5 -49z" />
    <glyph glyph-name="forward" unicode="&#xe65f;" 
d="M807 -8h-622q-26 0 -44.5 18.5t-18.5 44.5v623q0 26 18.5 44.5t44.5 18.5h331q11 0 18.5 -7.5t7.5 -18.5t-7.5 -18.5t-18.5 -7.5h-331q-5 0 -8.5 -3t-3.5 -8v-623q0 -5 3.5 -8t8.5 -3h622q5 0 8 3t3 8v332q0 11 7.5 18.5t18.5 7.5t18.5 -7.5t7.5 -18.5v-332
q0 -26 -18.5 -44.5t-44.5 -18.5v0zM393.5 239q-10.5 0 -18 7.5t-7.5 18t7 17.5l463 461q7 7 18 7t18 -7.5t7 -18t-7 -18.5l-463 -460q-7 -7 -17.5 -7zM884.5 525q-10.5 0 -18 7.5t-7.5 18.5v163q0 7 -4.5 11.5t-10.5 4.5h-164q-11 0 -18.5 7.5t-7.5 18t7.5 18t18.5 7.5h164
q27 0 46.5 -19.5t19.5 -47.5v-163q0 -11 -7.5 -18.5t-18 -7.5z" />
    <glyph glyph-name="gear" unicode="&#xe634;" 
d="M884 207l-14 8q-19 11 -30 30q-18 30 -8.5 64t39.5 52l14 8q11 6 14.5 19t-3.5 24l-84 146q-6 12 -19 15q-13 4 -25 -3l-14 -8q-19 -12 -42 -12q-34 0 -59 25t-25 60v16q0 13 -9 22.5t-23 9.5h-168q-13 0 -22.5 -9.5t-9.5 -22.5v-16q0 -23 -11 -42q-17 -29 -51.5 -38.5
t-64.5 7.5l-13 8q-12 7 -24.5 3.5t-19.5 -15.5l-84 -146q-7 -11 -3.5 -24t15.5 -19l13 -8q20 -11 31 -31q18 -30 8.5 -64t-39.5 -51l-14 -8q-11 -7 -14.5 -19.5t3.5 -24.5l84 -146q7 -11 20 -14.5t24 3.5l14 8q19 11 42 11q34 0 58.5 -24.5t25.5 -59.5v-16q0 -13 9.5 -22.5
t22.5 -9.5h168q13 0 22.5 9.5t9.5 22.5v16q0 22 11 42q17 29 51.5 38t63.5 -8l14 -7q11 -7 24 -3.5t20 14.5l84 146q7 12 3.5 24.5t-15.5 19.5zM784 213q16 -27 41 -45l-53 -92q-51 22 -106 4t-82 -65q-16 -27 -19 -58h-106q-7 56 -49 94t-98 38q-32 0 -60 -12l-53 91
q45 34 57 89.5t-16 104.5q-16 27 -41 46l53 91q50 -22 105.5 -4t82.5 65q16 28 19 59h106q6 -56 48.5 -94.5t98.5 -38.5q32 0 60 13l53 -92q-45 -33 -57 -88.5t16 -105.5zM512 468q-75 0 -127.5 -52.5t-52.5 -127.5t52.5 -128t127.5 -53t128 53t53 128t-53 127.5t-128 52.5z
M512 171q-48 0 -82 34.5t-34 82.5t34 82t82 34t82.5 -34t34.5 -82t-34.5 -82.5t-82.5 -34.5z" />
    <glyph glyph-name="comment" unicode="&#xe621;" 
d="M286.5 519q-23.5 0 -40 -17t-16.5 -41t16.5 -41t40 -17t39.5 17t16 41t-16 41t-39.5 17zM511 519q-23 0 -39.5 -17t-16.5 -41t16.5 -41t39.5 -17t39.5 17t16.5 41t-16.5 41t-39.5 17zM735.5 519q-23.5 0 -40 -17t-16.5 -41t16.5 -41t40 -17t40 17t16.5 41t-16.5 41
t-40 17zM848 810h-674q-47 0 -79.5 -34t-32.5 -82v-437q0 -49 34 -86.5t81 -37.5h171l153 -159q10 -11 20 0q90 102 149 159h175q47 0 81 37.5t34 86.5v437q0 48 -33 82t-79 34zM904 257q0 -25 -17.5 -45.5t-41.5 -20.5h-172q-9 0 -19 -5.5t-15 -10.5l-5 -6l-121 -125
l-121 125q-23 22 -43 22h-172q-24 0 -41.5 20.5t-17.5 45.5v437q0 24 16.5 41t39.5 17h674q23 0 39.5 -17t16.5 -41v-437z" />
    <glyph glyph-name="collect" unicode="&#xe604;" 
d="M512 811q-16 0 -26 -22l-95 -191q-11 -23 -36 -41t-50 -22l-211 -30q-25 -4 -29.5 -18.5t12.5 -32.5l154 -149q17 -17 26.5 -46.5t5.5 -53.5l-36 -211q-3 -18 3 -27.5t18 -9.5q10 0 22 6l189 99q22 12 53 12t53 -12l189 -99q12 -6 22 -6q12 0 18 9.5t3 27.5l-36 211
q-4 24 5.5 53.5t26.5 46.5l154 149q17 18 12.5 32.5t-29.5 18.5l-211 30q-25 4 -50 22t-36 41l-95 191q-10 22 -26 22v0z" />
    <glyph glyph-name="compose" unicode="&#xe60b;" 
d="M911 608l-414 -413l-113 -23l23 113l413 414l18 -17l-415 -414l57 -57l414 415zM927 625l20 20q11 10 11 24.5t-11 24.5l-41 41q-10 11 -24.5 11t-24.5 -11l-20 -20zM833 436v-455h-640v640h450l65 63h-580v-768h768v584z" />
    <glyph glyph-name="position" unicode="&#xe606;" 
d="M515 -83q-21 0 -79.5 72t-118.5 167.5t-107 198t-47 154.5q0 97 47 178.5t128.5 129t177 47.5t177 -47.5t128.5 -129t47 -178.5q0 -51 -47 -153.5t-107.5 -198t-119 -168t-79.5 -72.5zM515.5 824q-129.5 0 -221 -92t-91.5 -221q0 -47 41.5 -138.5t95 -178t105 -151.5
t70.5 -65t70.5 65.5t105 152t95 178t41.5 137.5q0 129 -91 221t-220.5 92zM515.5 361q-60.5 0 -104 43.5t-43.5 104.5t43.5 104.5t104 43.5t103.5 -43.5t43 -104.5t-43 -104.5t-103.5 -43.5zM515.5 605q-38.5 0 -66 -27.5t-27.5 -66.5t27.5 -66.5t66 -27.5t66 27.5
t27.5 66.5t-27.5 66.5t-66 27.5z" />
    <glyph glyph-name="msg" unicode="&#xe75a;" 
d="M805 328v387q0 30 -21.5 51.5t-51.5 21.5h-606q-30 0 -51.5 -21.5t-21.5 -51.5v-387q0 -30 21.5 -51.5t51.5 -21.5h94l2 -195l200 195h310q30 0 51.5 21.5t21.5 51.5zM407 293l-148 -143l-1 143h-132q-14 0 -24 10.5t-10 24.5v387q0 14 10 24t24 10h606q15 0 25 -10
t10 -24v-387q0 -14 -10 -24.5t-25 -10.5h-325zM898 630h-60v-38h60q14 0 24 -10.5t10 -24.5v-320q0 -14 -10 -24.5t-24 -10.5h-143v-132l-127 132h-190v-38h174l181 -190v190h104q31 0 52.5 21.5t21.5 51.5v320q0 30 -21.5 51.5t-51.5 21.5z" />
    <glyph glyph-name="t" unicode="&#xe607;" 
d="M216 563v112h542v-112h-199v-556h-145v556h-198z" />
    <glyph glyph-name="level" unicode="&#xe862;" 
d="M10 -117h995q5 0 6.5 1.5t1.5 6.5v995v0q1 0 1 -1v-5v-992q0 -6 -6 -6h-532h-460q-5 0 -6 1v0zM10 -117zM1013 879v7h-997q-6 0 -6 -6v-997h7h989q6 0 6.5 0.5t0.5 7.5v988v0zM929 -40h-418h-418q-7 0 -7 7q1 421 0 836q0 7 7 7h836q7 0 7 -7v-836q0 -7 -7 -7v0zM929 -40
zM229 354v250q0 7 8 7q27 -1 53 0q7 0 7 -7q-1 -39 -1 -181v-253q0 -8 8 -8q34 1 98.5 1h93.5q6 0 6 -6v-54q0 -5 -6 -5h-133q-91 0 -127 -1q-7 0 -7 7v250v0v0zM229 354zM854 465q-40 -93 -43 -102q-88 -205 -111 -259q-3 -7 -11 -6h-29q-7 -1 -9 6q-31 80 -109 282
q-2 6 -12.5 32t-15.5 40q-2 5 -2 7h52q3 0 5 -6q2 -4 52 -130q23 -59 52 -132l2 -5q27 59 28 62q66 148 92 205q2 6 7 6h52v0zM854 465z" />
    <glyph glyph-name="article" unicode="&#xe6bc;" 
d="M679 797h-462q-25 0 -43 -17t-18 -41v-716q0 -24 18 -41t43 -17h585q25 0 43 17t18 41v569zM782 593h-124v138zM790 28h-560q-10 0 -10 7v693q0 7 10 7h381v-151q0 -21 14.5 -35.5t35.5 -14.5h139v-499q0 -7 -10 -7v0zM557 544q0 -13 -9.5 -22.5t-22.5 -9.5h-173
q-13 0 -22.5 9.5t-9.5 22.5v0q0 13 9.5 22.5t22.5 9.5h173q13 0 22.5 -9.5t9.5 -22.5v0zM708 385q0 -13 -9.5 -22.5t-22.5 -9.5h-322q-13 0 -22.5 9.5t-9.5 22.5v0q0 13 9.5 22.5t22.5 9.5h322q13 0 22.5 -9.5t9.5 -22.5v0zM708 226q0 -13 -9.5 -22.5t-22.5 -9.5h-322
q-13 0 -22.5 9.5t-9.5 22.5v0q0 13 9.5 22.5t22.5 9.5h322q13 0 22.5 -9.5t9.5 -22.5v0z" />
    <glyph glyph-name="like" unicode="&#xe65c;" 
d="M275 34h-4v0h-126h-5q-12 0 -20 8t-8 20v406q0 11 8.5 19.5t19.5 8.5h4v0h118v1q79 8 132.5 65t55.5 136v1v0v8q0 39 27 66t65 27q33 0 58 -20q25 -21 33 -52l1 -5v0q8 -35 8 -71q0 -59 -20 -115l-3 -7h197q2 0 4 -1h1v0q50 -2 77 -44q16 -26 14 -57v-1v0q0 -5 -1 -9v-1
l-73 -322q-1 -5 -4 -9v0h-1q-11 -24 -33 -37q-21 -14 -45 -15v0h-476h-4zM493 621q-21 -64 -70 -110.5t-115 -62.5l-4 -1l-1 -356l447 -1h3h1h1q8 1 15 5.5t11 11.5l2 -1l1 8l72 315v0q2 14 -6 26q-9 16 -28 18v0h-6l-238 1q-12 0 -20.5 8t-8.5 20q0 6 3 12l2 4v1
q18 35 27 74v0l1 4q4 19 4 55q0 28 -5 54v0q0 16 -11 27t-26 11t-25.5 -10t-11.5 -24h-1v-6q1 -26 -4 -53q-3 -11 -6 -24h-1zM169 439l-1 -348h79v349z" />
    <glyph glyph-name="search" unicode="&#xe651;" 
d="M966 -29l-230 227q96 107 96 256q0 107 -52.5 197t-142.5 142t-195 52q-107 0 -197 -52.5t-142 -142.5t-52 -196t52.5 -196t142.5 -142t196 -52q149 0 256 96l230 -227q7 -7 19 -7t19 7q10 9 10 20t-10 18zM102 454.5q0 91.5 45 169.5t123.5 124t171.5 46t171 -45.5
t123 -123.5t45 -171q0 -66 -24.5 -126.5t-68.5 -106.5q-2 0 -3.5 -1.5t-2.5 -1.5q-4 -4 -4 -7q-46 -44 -106.5 -68.5t-126.5 -24.5q-93 -1 -172 44t-125 123t-46 169.5z" />
    <glyph glyph-name="up-arrow" unicode="&#xe65d;" 
d="M966 227l-435 432q-7 7 -17.5 7t-17.5 -7l-442 -432q-7 -7 -7 -17.5t7.5 -17.5t17.5 -7t18 7l425 416l416 -416q7 -7 17.5 -7t18 7t7.5 17.5t-8 17.5z" />
    <glyph glyph-name="down-arrow" unicode="&#xe65e;" 
d="M966 573q-7 7 -17.5 7t-17.5 -7l-416 -416l-425 416q-8 7 -18 7t-17.5 -7t-7.5 -17.5t7 -17.5l442 -432q7 -8 17.5 -8t17.5 8l435 432q15 20 0 35z" />
    <glyph glyph-name="right-arrow" unicode="&#xe660;" 
d="M762 406l-432 436q-8 7 -18 7t-17.5 -7.5t-7.5 -17.5t7 -18l416 -416l-416 -425q-7 -7 -7 -17.5t7.5 -18t17.5 -7.5t18 8l432 441q7 7 7 17.5t-7 17.5z" />
    <glyph glyph-name="left-arrow" unicode="&#xe661;" 
d="M730 -35l-416 425l416 416q7 8 7 18t-7.5 17.5t-17.5 7.5t-18 -7l-432 -436q-7 -7 -7 -17.5t7 -17.5l432 -441q8 -8 18 -8t17.5 7.5t7.5 18t-7 17.5z" />
    <glyph glyph-name="hot" unicode="&#xe63a;" 
d="M451 -76q-23 47 -25 87.5t8 66t32 57.5q18 26 30.5 55.5t16.5 45.5l4 17q1 -2 3 -5t7 -14t7.5 -22.5t4.5 -29.5t-3 -36q38 43 52 104t6 97q63 -44 101 -117.5t40 -152.5t-33 -153q80 45 128 99.5t61.5 106t8.5 105.5t-25 98t-45.5 83t-46.5 62t-34 32q14 -26 11.5 -67.5
t-26.5 -62.5q-16 61 -42.5 111t-53 77.5t-51 46t-39.5 24.5l-15 6q20 -137 -138 -330q-2 40 -7.5 65t-21.5 54q-3 -44 -40.5 -119.5t-44.5 -111.5q-18 -86 20 -151t150 -128v0z" />
    <glyph glyph-name="film" unicode="&#xe60d;" 
d="M725.5 457q-37.5 0 -64 -26.5t-26.5 -64t26.5 -64t64 -26.5t64 26.5t26.5 64t-26.5 64t-64 26.5zM508.5 240q-37.5 0 -64 -26.5t-26.5 -64t26.5 -64t64 -26.5t64 26.5t26.5 64t-26.5 64t-64 26.5zM472 366q0 -15 10.5 -25.5t25.5 -10.5t26 10.5t11 25.5t-11 25.5
t-26 10.5t-25.5 -10.5t-10.5 -25.5zM508.5 674q-37.5 0 -64 -26.5t-26.5 -64t26.5 -64t64 -26.5t64 26.5t26.5 64t-26.5 64t-64 26.5zM290.5 457q-37.5 0 -64 -26.5t-26.5 -64t26.5 -64t64 -26.5t64 26.5t26.5 64t-26.5 64t-64 26.5zM743 22h95q13 0 22.5 -10.5t9.5 -25.5
t-9.5 -25.5t-22.5 -10.5h-317h-4h-4h-5q-113 0 -209 55.5t-151.5 151.5t-55.5 209t55.5 209t151.5 152t209.5 56t209 -56t151.5 -152t56 -209q0 -105 -49 -196t-133 -148z" />
    <glyph glyph-name="video" unicode="&#xe737;" 
d="M676 106h-549q-27 0 -46 19.5t-19 45.5v363q0 27 19 46t46 19h549q27 0 46 -19t19 -46v-363q0 -26 -19 -45.5t-46 -19.5zM127 553q-8 0 -13.5 -5.5t-5.5 -13.5v-363q0 -7 5.5 -13t13.5 -6h549q8 0 13.5 6t5.5 13v363q0 8 -5.5 13.5t-13.5 5.5h-549zM939 131q-7 0 -12 3
l-221 133q-8 5 -10.5 14t2.5 17.5t14 10.5t18 -3l186 -111v304l-187 -109q-8 -5 -17 -2.5t-14 11t-2.5 17.5t10.5 14l221 129q12 7 23.5 0.5t11.5 -20.5v-385q0 -13 -12 -20q-5 -3 -11 -3z" />
    <glyph glyph-name="music" unicode="&#xe60c;" 
d="M838 832l-480 -92q-19 -3 -31 -18t-12 -34v-510q-63 25 -138 -4q-63 -24 -94 -73.5t-12.5 -95.5t76.5 -61.5t121 8.5q52 21 83.5 60t29.5 80v467l422 81v-357q-63 26 -137 -3q-63 -24 -94.5 -73.5t-13 -95.5t76.5 -61.5t121 8.5q51 20 82.5 58t30.5 79v0v611
q0 13 -9.5 21t-21.5 5z" />
    <glyph glyph-name="charity" unicode="&#xe601;" horiz-adv-x="1164" 
d="M647 279q0 1 -1 1.5t-1 1.5q-7 7 -16.5 7t-16.5 -7t-7 -17t7 -17l5.5 -5.5l15 -15t21.5 -22t26 -26.5l28.5 -28.5t28 -29t25.5 -27t21.5 -21.5t14.5 -14.5l5 -5.5q-27 -24 -55 -47l-190 195l-3 3q-6 6 -15.5 6t-16.5 -6.5t-7 -16.5t7 -17l2 -2l187 -192q-29 -23 -59 -46
l-187 192l-3 3q-7 7 -16.5 7t-16 -7t-6.5 -17t7 -17q2 -2 4 -3l181 -185l-45 -31q-12 8 -32.5 23t-80 61.5t-113 94t-119.5 116t-113.5 133t-80 139t-32.5 138.5q0 74 16.5 131t43 91.5t63 57t73 30.5t77.5 8q43 1 86.5 -13.5t80 -38.5t61.5 -44t46 -42l273 -297q4 -5 8 -8
l4 -6q2 -2 5 -3q7 -9 17 -9.5t17 6.5t7 17t-7 17q-2 2 -4 3q-5 5 -8 7q-10 11 -26 20q-136 148 -239 259q44 33 66 52q107 82 209 81q41 0 78 -8.5t74 -30.5t63.5 -56.5t43 -92t16.5 -131.5q0 -169 -214 -400l-325 333q-2 0 -4 2q-6 7 -15.5 7t-16.5 -6.5t-7 -16.5t7 -17
q2 -2 5 -4l324 -332q-29 -29 -60 -59z" />
    <glyph glyph-name="at" unicode="&#xe700;" 
d="M566 193q-35 -40 -76 -63q-42 -24 -84 -24q-46 0 -90 27t-71 83.5t-27 123.5q0 82 42 165t105 125t123 42q45 0 86 -24t71 -72l17 81h94l-75 -349q-16 -73 -16 -81q0 -14 11 -24q10 -10 25 -10q28 0 73 31q59 42 94 112q34 70 34 144q0 87 -44 163q-45 76 -133 120
q-88 46 -194 46q-122 0 -223 -57t-156 -164q-56 -106 -56 -228q0 -128 56 -220q55 -92 160 -136q104 -44 232 -44q137 0 229 46t137 112h95q-27 -55 -91.5 -112t-153.5 -90t-214 -33q-116 0 -213.5 30t-165.5 89q-69 60 -104 137q-44 99 -44 213q0 126 52 242
q64 141 181 216q116 75 283 75q129 0 232 -53t162 -158q50 -90 50 -195q0 -151 -106 -268q-95 -105 -207 -105q-36 0 -58 11t-33 31q-6 13 -9 45zM314 334q0 -72 33.5 -111.5t77.5 -39.5q29 0 62 18q32 17 61 51t48 88q19 53 19 105q0 71 -35 110t-86 39q-33 0 -62 -17
t-57 -54.5t-44 -90.5q-17 -54 -17 -98z" />
    <glyph glyph-name="album" unicode="&#xe60a;" 
d="M903 719v0v-670v0h-782v0v670v0h782zM903 775h-782q-23 0 -39.5 -16.5t-16.5 -39.5v-670q0 -23 16.5 -39.5t39.5 -16.5h782q23 0 39.5 16.5t16.5 39.5v670q0 23 -16.5 39.5t-39.5 16.5v0zM791 579.5q0 -34.5 -24.5 -59t-59 -24.5t-59 24.5t-24.5 59t24.5 59t59 24.5
t59 -24.5t24.5 -59zM847 105h-670v111l195 336l224 -280h56l195 168v-335z" />
    <glyph glyph-name="v" unicode="&#xe64a;" horiz-adv-x="1049" 
d="M539.5 743q-97.5 0 -180.5 -48t-131 -130.5t-48 -180.5t48 -180.5t131 -130.5t180.5 -48t180.5 48t131 130.5t48 180.5t-48 180.5t-131 130.5t-180.5 48zM775 526q-20 -110 -123 -226q-39 -45 -78 -78t-62 -48q-10 -6 -18 -6q-14 0 -28.5 12.5t-22.5 29.5v0
q-9 17 -47 136q-30 95 -41.5 127.5t-21.5 43.5q-12 14 -32 18q61 54 98 61h5q3 0 6 -2q6 -5 12 -19q9 -24 21 -90q7 -43 12 -61q9 -35 13.5 -51.5t13 -39.5t16.5 -33t20 -18t27 -8q32 0 68 45q24 31 53 83q17 31 19 62t-12 55q-16 26 -45 35q9 10 19 18q37 28 78 28
q29 0 42 -15q15 -19 8 -59z" />
    <glyph glyph-name="link" unicode="&#xe665;" 
d="M946 645l-171 171q-16 16 -39 16t-39 -16l-246 -245q-16 -16 -16 -38.5t16 -38.5l20 -36l66 67q-16 16 0 33l199 198l150 -149l-199 -198q-17 -17 -34 0l-66 -66l35 -20q16 -16 39 -16t39 16l246 245q16 16 16 39t-16 38zM554 310l-67 -66q17 -17 0 -33l-199 -198
l-149 148l199 198q17 17 33 0l67 66l-36 20q-16 16 -39 16t-39 -16l-246 -245q-16 -16 -16 -39t16 -39l171 -170q16 -16 39 -16t39 16l246 245q16 16 16 38.5t-16 38.5zM355 178l381 380l-49 49l-382 -380z" />
    <glyph glyph-name="refresh" unicode="&#xe726;" 
d="M891 411q-7 107 -63.5 196t-149.5 140t-201 51q-113 0 -208 -55t-150.5 -150.5t-55.5 -208.5t55.5 -208.5t150.5 -150.5t208 -55q149 0 263 94v0q7 5 7 14v0q0 8 -5 13t-13 5v0q-8 0 -14 -7v0q-104 -84 -238 -84q-103 0 -190 51t-138 138t-51 190t51 190t138 138t190 51
q98 0 182.5 -47t136.5 -127.5t59 -177.5h-71l89 -130l88 130h-70z" />
    <glyph glyph-name="speaker" unicode="&#xe668;" 
d="M62 577v-386h193l450 -257v900l-450 -257h-193zM126 255v258h129v-258h-129zM641 43l-322 187v308l322 187v-682v0zM821 667l-39 -52q5 -3 12.5 -10t27.5 -30t35.5 -48.5t28 -64t12.5 -78.5t-12.5 -78.5t-28 -64t-35.5 -48.5t-27.5 -30t-12.5 -10v0l39 -52l6 5.5t14 13
t19 19t22 26t23 32t22 38.5t18 44t12.5 50t4.5 55t-4.5 55t-12.5 50t-18 44t-22 38.5t-23 32t-22 26t-19 19t-14 13z" />
    <glyph glyph-name="famous-people" unicode="&#xe618;" 
d="M853 -69q-51 0 -94 29l-82 -82q-6 -6 -15 -6t-15 5l-19 22q-6 6 -5.5 14t6.5 14l82 80q-29 43 -29 95q0 71 50 121t121 50t121 -50t50 -121t-50 -121t-121 -50zM853 213q-46 0 -79 -32.5t-33 -78.5t33 -79t79 -33t78.5 33t32.5 79t-32.5 78.5t-78.5 32.5zM756 548
q-2 -14 -4 -27q0 -1 -0.5 -2.5l-0.5 -1.5q-3 -13 -6 -24q-1 0 -1 -1.5t-1 -2.5q-3 -12 -9 -25q-14 -35 -38 -63l27 38q-1 -1 -3 -4q0 -1 -0.5 -2t-0.5 -2q-5 -8 -12 -19q-4 -6 -5 -6q-7 -11 -14 -19q0 -1 -5 -7q-44 -50 -103 -79l85 60q-8 -8 -18 -16q-44 -38 -101 -57
l79 39q-1 0 -4 -2h1v0q14 -6 31 -15q4 -2 13 -7q1 -1 9 -6v-0.5v-0.5q21 -12 21 -36l1 -4q0 -18 -13 -30.5t-32 -12.5q-23 0 -36 19q-1 -1 -1.5 -2l-0.5 -1q-74 40 -158 42h-5h-6h-6h-5q-133 -4 -230 -93t-113 -219h-1v-1q0 -18 -13 -31t-31.5 -13t-31.5 13t-13 31l-1 4
q0 9 3 17l0.5 0.5t0.5 1.5q6 42 20 82q0 1 1 2q9 25 20 48l1 1.5t1 2.5q40 76 102 132l-85 -102v0q49 79 123 132l-93 -89v1q57 71 136 115l-112 -88l1 1v0q66 71 154 108l-121 -76l2 2q8 7 13 11q10 8 21 15q7 6 16 12q11 7 21 12q9 5 13 7q16 9 30 15h1q-9 6 -19 14
q-42 33 -67 80q47 -61 46 -61t-4 3l-4 5q-7 6 -14 14q-4 6 -5 6q-7 9 -14 20q-1 1 -5 6q-6 10 -11 19q-1 0 -1.5 1.5t-0.5 2.5q-6 10 -12 23l-2 6q-5 13 -9 24q0 1 -0.5 3t-1.5 2q-11 37 -13 79l6 -51q-2 13 -4 27v6q-2 16 -2 29q0 129 91.5 220.5t221.5 91.5t221.5 -91.5
t91.5 -220.5q0 -13 -2 -29v-6zM444.5 806q-92.5 0 -157.5 -65.5t-65 -158t65 -157.5t157.5 -65t158 65t65.5 157.5t-65.5 158t-158 65.5z" />
    <glyph glyph-name="friends" unicode="&#xe6ae;" horiz-adv-x="1057" 
d="M1057 106q0 -32 -21.5 -52.5t-56.5 -20.5h-23.5h-21.5q-10 0 -16.5 2.5t-10.5 5.5t-7.5 11t-5 13.5t-4.5 19t-5 21.5q-15 54 -57 123t-80.5 114t-56.5 56q-23 13 -28 20t1.5 16t17.5 20t21 41t10 71q0 70 -25 122q-5 9 -7 15t-3 13.5t2 11t11 6t22 2.5q72 -2 122 -51
t50 -119q0 -43 -20.5 -80.5t-56.5 -60.5q18 -4 29 -7q61 -18 112 -68.5t79.5 -116t28.5 -128.5zM805 23q-1 -78 -83 -78h-216h-258h-165q-28 0 -46.5 6.5t-25.5 19.5t-9 23.5t-2 28.5q0 134 81.5 243t205.5 144q-53 29 -80.5 80t-27.5 115q0 91 65.5 155.5t158 64.5
t158 -64.5t65.5 -155.5q0 -64 -29 -115t-83 -80q125 -35 208.5 -145t82.5 -242zM805 23z" />
  </font>
</defs>
</svg>
